HIERARCHY
ROOT root
{
	OFFSET 0.000000 0.000000 0.000000
	CHANNELS 6 Xposition Yposition Zposition Zrotation Yrotation Xrotation
	JOINT lhip
	{
		OFFSET 0.058581 -0.082280 -0.017664
		CHANNELS 3 Zrotation Yrotation Xrotation
		JOINT lknee
		{
			OFFSET 0.043451 -0.386469 0.008037
			CHANNELS 3 Zrotation Yrotation Xrotation
			JOINT lankle
			{
				OFFSET -0.014790 -0.426874 -0.037428
				CHANNELS 3 Zrotation Yrotation Xrotation
				JOINT ltoe
				{
					OFFSET 0.041054 -0.060286 0.122042
					CHANNELS 3 Zrotation Yrotation Xrotation
					End Site
					{
						OFFSET 0.000000 0.000000 0.000000
					}
				}
			}
		}
	}
	JOINT rhip
	{
		OFFSET -0.060310 -0.090513 -0.013543
		CHANNELS 3 Zrotation Yrotation Xrotation
		JOINT rknee
		{
			OFFSET -0.043257 -0.383688 -0.004843
			CHANNELS 3 Zrotation Yrotation Xrotation
			JOINT rankle
			{
				OFFSET 0.019056 -0.420046 -0.034562
				CHANNELS 3 Zrotation Yrotation Xrotation
				JOINT rtoe
				{
					OFFSET -0.034840 -0.062106 0.130323
					CHANNELS 3 Zrotation Yrotation Xrotation
					End Site
					{
						OFFSET 0.000000 0.000000 0.000000
					}
				}
			}
		}
	}
	JOINT lowerback
	{
		OFFSET 0.004439 0.124404 -0.038385
		CHANNELS 3 Zrotation Yrotation Xrotation
		JOINT upperback
		{
			OFFSET 0.004488 0.137956 0.026820
			CHANNELS 3 Zrotation Yrotation Xrotation
			JOINT chest
			{
				OFFSET -0.002265 0.056032 0.002855
				CHANNELS 3 Zrotation Yrotation Xrotation
				JOINT lowerneck
				{
					OFFSET -0.013390 0.211636 -0.033468
					CHANNELS 3 Zrotation Yrotation Xrotation
					JOINT upperneck
					{
						OFFSET 0.010113 0.088937 0.050410
						CHANNELS 3 Zrotation Yrotation Xrotation
						End Site
						{
							OFFSET 0.000000 0.000000 0.000000
						}
					}
				}
				JOINT lclavicle
				{
					OFFSET 0.071702 0.114000 -0.018898
					CHANNELS 3 Zrotation Yrotation Xrotation
					JOINT lshoulder
					{
						OFFSET 0.122921 0.045205 -0.019046
						CHANNELS 3 Zrotation Yrotation Xrotation
						JOINT lelbow
						{
							OFFSET 0.255332 -0.015649 -0.022946
							CHANNELS 3 Zrotation Yrotation Xrotation
							JOINT lwrist
							{
								OFFSET 0.265709 0.012698 -0.007375
								CHANNELS 3 Zrotation Yrotation Xrotation
								End Site
								{
									OFFSET 0.000000 0.000000 0.000000
								}
							}
						}
					}
				}
				JOINT rclavicle
				{
					OFFSET -0.082954 0.112472 -0.023707
					CHANNELS 3 Zrotation Yrotation Xrotation
					JOINT rshoulder
					{
						OFFSET -0.113228 0.046853 -0.008472
						CHANNELS 3 Zrotation Yrotation Xrotation
						JOINT relbow
						{
							OFFSET -0.260127 -0.014369 -0.031269
							CHANNELS 3 Zrotation Yrotation Xrotation
							JOINT rwrist
							{
								OFFSET -0.269108 0.006794 -0.006027
								CHANNELS 3 Zrotation Yrotation Xrotation
								End Site
								{
									OFFSET 0.000000 0.000000 0.000000
								}
							}
						}
					}
				}
			}
		}
	}
}
MOTION
Frames: 9
Frame Time: 0.033333
1.751526 0.635402 0.994235 -85.370670 3.474959 84.139994 2.858665 0.225554 8.737394 -2.222654 -12.878424 2.888086 4.767802 9.261939 -16.553402 0.000000 -0.000000 0.000000 3.798866 -3.437149 6.816834 3.559306 0.914451 5.693923 3.766191 -4.937232 -11.618877 0.000000 -0.000000 0.000000 -1.200770 0.926996 5.660281 2.602865 -2.471066 3.831489 0.671525 -2.284645 6.564088 3.769067 -4.843867 11.898185 1.124704 -8.283032 13.433455 -25.916578 8.040241 1.397748 -61.165988 -11.152154 8.236630 12.954260 -34.760837 0.832194 -1.869634 -0.410135 -10.310492 24.732392 -6.574402 -1.636262 60.718899 0.963647 9.995340 -15.897449 21.394725 -4.825819 6.391722 -2.391120 -5.095504 
1.750906 0.635107 0.994317 -85.596683 3.483025 84.326937 2.860904 0.334066 8.670881 -2.208380 -12.722373 2.747988 4.741266 9.211153 -16.593532 0.000000 -0.000000 0.000000 3.719832 -3.464623 6.702298 3.632832 0.971780 5.603741 3.851410 -4.693092 -11.475609 0.000000 -0.000000 0.000000 -1.142943 0.859061 5.704650 2.613937 -2.535929 3.545653 0.669421 -2.360640 6.625495 3.869244 -4.898304 11.386981 1.006568 -8.375806 13.265249 -25.705426 8.030538 1.170331 -61.378509 -11.116660 8.554430 12.730840 -35.734569 1.434743 -1.704120 -0.633878 -10.406945 24.598972 -6.557233 -1.990938 60.811932 1.066991 10.183756 -15.954375 22.421260 -4.930921 6.093833 -1.964258 -5.364490 
1.750393 0.634986 0.994411 -85.865815 3.574086 84.437685 2.961876 0.413217 8.656304 -2.217274 -12.551070 2.678756 4.717012 9.182039 -16.592387 0.000000 -0.000000 0.000000 3.843756 -3.334595 6.661301 3.562136 0.922921 5.469075 3.837844 -4.558083 -11.476625 0.000000 -0.000000 0.000000 -1.084925 0.769169 5.732155 2.637184 -2.594759 3.484628 0.745777 -2.326932 6.500556 3.822868 -4.611566 11.289361 0.977988 -8.189687 13.119155 -25.590615 7.792944 1.226379 -61.533150 -11.038643 8.727947 12.569749 -36.083490 1.826293 -1.654038 -0.732315 -10.338719 24.528555 -6.360893 -1.949908 60.852773 1.427814 10.208097 -16.108329 23.368022 -5.066032 5.990051 -1.960404 -5.656968 
1.749966 0.635029 0.994150 -86.419788 3.514575 84.804488 2.844002 0.529726 8.423278 -2.180694 -12.217612 2.544567 4.690988 9.330307 -16.564171 0.000000 -0.000000 0.000000 3.690649 -2.958039 6.268517 3.686193 0.922775 5.439973 3.949976 -4.370596 -11.279035 0.000000 -0.000000 0.000000 -1.112673 0.850869 5.515537 2.637840 -2.548623 3.353830 0.795097 -2.327113 6.480035 3.802445 -4.433417 11.012406 0.894796 -7.989941 12.880220 -25.546800 7.609379 1.149255 -61.722511 -10.822764 8.845997 12.275206 -35.606500 2.229247 -1.662751 -0.950868 -10.042895 24.521023 -6.322197 -2.086784 60.925626 2.040272 10.258773 -16.098358 24.115643 -5.523373 5.850546 -1.326699 -6.301916 
1.748206 0.634737 0.994346 -86.105170 3.694040 84.563987 3.018431 0.574978 8.876454 -2.067448 -12.465140 2.424184 4.760796 9.178917 -16.672407 0.000000 -0.000000 0.000000 3.892810 -3.490174 6.780257 3.552376 1.044312 5.221581 3.775101 -4.280330 -11.389755 0.000000 -0.000000 0.000000 -0.946891 0.619070 5.643981 2.649204 -2.811616 3.494362 0.803915 -2.401948 6.318175 3.694465 -4.366629 11.322966 0.950024 -7.743401 12.784192 -25.465885 7.348813 1.397405 -61.894387 -10.563414 8.736124 12.239134 -34.971616 2.449026 -1.755386 -0.735787 -9.906902 24.369693 -6.099756 -1.961492 61.098339 2.094828 10.124349 -16.163196 24.635993 -5.475091 6.002744 -1.403058 -6.571939 
1.747021 0.634369 0.994156 -86.284559 3.785825 84.683131 3.107330 0.670113 8.832815 -2.081309 -12.314648 2.453579 4.719499 9.120614 -16.707108 0.000000 -0.000000 0.000000 3.924009 -3.723948 6.706114 3.590127 1.279789 5.136285 3.682348 -4.066684 -11.359176 0.000000 -0.000000 0.000000 -0.839463 0.627682 5.394511 2.708218 -2.886187 3.663590 0.805636 -2.391830 6.192327 3.709585 -4.318530 11.278224 0.965242 -7.636028 12.586927 -25.531487 7.172222 1.473588 -62.001581 -10.223645 8.584041 12.072544 -33.564876 2.786922 -2.162669 -0.910863 -9.591747 24.205836 -5.932083 -1.860741 61.365954 2.415684 10.136961 -16.311658 24.807490 -5.278205 6.053328 -1.579431 -6.640309 
1.748249 0.634137 0.993612 -87.046554 3.391756 85.299290 2.526135 0.513890 8.174696 -2.071439 -11.837627 2.397738 5.107227 9.626417 -16.528868 0.000000 -0.000000 0.000000 3.590851 -2.653787 5.542859 3.578367 1.083036 5.836602 3.738848 -4.153736 -11.395144 0.000000 -0.000000 0.000000 -1.132039 0.948853 5.156185 2.603330 -2.598004 3.197754 0.806077 -2.364236 6.288604 3.906128 -4.454537 11.130102 0.950672 -7.579302 12.329130 -25.600551 7.337549 1.409392 -62.078656 -9.863027 8.475158 11.822067 -32.184408 2.977184 -2.554158 -0.460078 -9.159859 24.255225 -5.862099 -1.790006 61.547850 2.551547 10.505001 -16.603477 24.930101 -5.200107 6.086524 -1.684661 -6.609802 
1.747077 0.634053 0.993523 -86.950371 3.450394 85.188544 2.570978 0.570976 8.308179 -2.018767 -11.866696 2.496144 4.928037 9.567256 -16.566160 0.000000 -0.000000 0.000000 3.606882 -2.649895 5.986123 3.624612 1.188236 5.409213 3.784832 -4.327860 -11.179815 0.000000 -0.000000 0.000000 -1.028198 0.947100 5.218249 2.608931 -2.636579 3.428216 0.804230 -2.496422 6.258803 4.060419 -4.575286 10.688175 0.906498 -7.578223 12.059830 -25.935005 7.398597 1.418370 -61.899045 -9.431771 8.188191 11.504868 -30.886411 2.922522 -2.684082 -0.193081 -8.822235 24.395233 -5.849584 -1.898417 61.371045 2.621262 10.581744 -16.467352 25.288148 -5.301959 5.972889 -1.476899 -6.626604 
1.745653 0.633890 0.993354 -86.984568 3.458468 84.981572 2.612709 0.805775 8.664777 -2.051255 -12.046531 2.470483 4.951716 9.559060 -16.714028 0.000000 -0.000000 0.000000 3.545441 -2.921542 6.269277 3.670924 1.361630 5.479608 3.623557 -4.253094 -11.379492 0.000000 -0.000000 0.000000 -0.950225 0.892018 5.549300 2.529033 -2.683257 3.421493 0.793924 -2.462974 6.214899 4.182363 -4.518967 10.329367 0.967420 -7.489366 11.778659 -26.021390 7.652332 1.506317 -61.821102 -8.782231 7.830577 11.132398 -29.747606 3.063945 -3.080679 -0.070002 -9.167838 24.412315 -5.859500 -2.021686 61.427736 2.526297 10.516062 -16.395933 25.513128 -5.299986 5.965453 -1.417824 -6.818597 
